<svg xmlns="http://www.w3.org/2000/svg" viewBox="0 0 496.49 430.91"><defs><style>.cls-1{fill:#01213d;}</style></defs><g id="Layer_2" data-name="Layer 2"><g id="Layer_1-2" data-name="Layer 1"><path class="cls-1" d="M333.24,430.91a3.5,3.5,0,0,1-3.44-4.11l55-311.74L248.25,65.37,111.72,115.06l55,311.74a3.5,3.5,0,0,1-6.48,2.36L.47,152.47a3.5,3.5,0,0,1,1.83-5l101.51-36.94L85.05,4.11A3.51,3.51,0,0,1,89.7.21L248.24,57.92,406.79.21a3.51,3.51,0,0,1,4.65,3.9L392.68,110.49l101.51,36.94a3.5,3.5,0,0,1,1.83,5L336.27,429.16A3.5,3.5,0,0,1,333.24,430.91Zm58.21-313.42-51.31,291L487.87,152.58ZM8.62,152.58,156.35,408.47,105,117.49ZM93,8.86l17.49,99.2L238,61.64ZM258.48,61.64,386,108.06l17.49-99.2Z"/></g></g></svg>