<svg xmlns="http://www.w3.org/2000/svg" viewBox="0 0 77.35 77.35"><defs><style>.cls-1{fill:#111827;}.cls-2{fill:#fff;}</style></defs><g id="Layer_2" data-name="Layer 2"><g id="Layer_1-2" data-name="Layer 1"><circle class="cls-1" cx="38.67" cy="38.67" r="38.67"/><path class="cls-2" d="M28.35,48.21A19.15,19.15,0,0,1,31,44.48q1.55-1.71,4.11-4l.86-.78a27.64,27.64,0,0,0,3.32-3.32,4.13,4.13,0,0,0,.84-2.59,2.68,2.68,0,0,0-1-2.27,4.8,4.8,0,0,0-3-.77,17.8,17.8,0,0,0-6.85,1.5V25.37a20.88,20.88,0,0,1,4.13-1.09,28.19,28.19,0,0,1,4.74-.41c3.34,0,5.88.79,7.6,2.38a8.41,8.41,0,0,1,2.6,6.53,9.22,9.22,0,0,1-1,4.53A15.77,15.77,0,0,1,44,41.14l-.73.64c-1,.83-1.77,1.55-2.4,2.17a12.48,12.48,0,0,0-1.54,1.78h9.21V51.9H28.35Z"/></g></g></svg>