<svg xmlns="http://www.w3.org/2000/svg" viewBox="0 0 77.35 77.35"><defs><style>.cls-1{fill:#111827;}.cls-2{fill:#fff;}</style></defs><g id="Layer_2" data-name="Layer 2"><g id="Layer_1-2" data-name="Layer 1"><circle class="cls-1" cx="38.67" cy="38.67" r="38.67"/><path class="cls-2" d="M32.29,49A19.6,19.6,0,0,1,28,47.89V41.46a17,17,0,0,0,3.79,1.16,22.45,22.45,0,0,0,4,.38,8,8,0,0,0,3.62-.62,2.3,2.3,0,0,0,1.14-2.21q0-2.4-3.78-2.4H32.05l.52-5.4h3.9a4.68,4.68,0,0,0,2.68-.6A2.22,2.22,0,0,0,40,29.84a2.06,2.06,0,0,0-1.07-1.9,6.92,6.92,0,0,0-3.39-.63,17.8,17.8,0,0,0-3.77.43,15.36,15.36,0,0,0-3.34,1.12V22.47a18.71,18.71,0,0,1,4-1.11,25.6,25.6,0,0,1,4.67-.43,15.76,15.76,0,0,1,6,1,8.54,8.54,0,0,1,3.81,2.83,6.83,6.83,0,0,1,1.31,4.11,8.51,8.51,0,0,1-.77,3.62,5.9,5.9,0,0,1-2.19,2.55c2.32,1,3.47,2.9,3.47,5.79a7.16,7.16,0,0,1-3.19,6.38A15,15,0,0,1,37,49.39,32.37,32.37,0,0,1,32.29,49Z"/></g></g></svg>