<svg xmlns="http://www.w3.org/2000/svg" viewBox="0 0 77.36 77.36"><defs><style>.cls-1{fill:#111827;}.cls-2{fill:#fff;}</style></defs><g id="Layer_2" data-name="Layer 2"><g id="Layer_1-2" data-name="Layer 1"><circle class="cls-1" cx="38.68" cy="38.68" r="38.67"/><path class="cls-2" d="M32.74,49a15.29,15.29,0,0,1-4.09-1.09V41.46a14.16,14.16,0,0,0,3.62,1.1,21.46,21.46,0,0,0,3.8.4,6.43,6.43,0,0,0,3.45-.72,2.61,2.61,0,0,0,1.09-2.32,2.63,2.63,0,0,0-.81-2.16,4.63,4.63,0,0,0-2.88-.67h-8.4V33.41l.73-12H47.12l-.55,6.18H36.15l-.26,3.94H39q9.82,0,9.82,8.74a8.29,8.29,0,0,1-2.94,6.71Q43,49.39,37.35,49.39A32.74,32.74,0,0,1,32.74,49Z"/></g></g></svg>