<svg xmlns="http://www.w3.org/2000/svg" viewBox="0 0 77.36 77.36"><defs><style>.cls-1{fill:#111827;}.cls-2{fill:#fff;}</style></defs><g id="Layer_2" data-name="Layer 2"><g id="Layer_1-2" data-name="Layer 1"><circle class="cls-1" cx="38.68" cy="38.68" r="38.67"/><path class="cls-2" d="M27.13,38.21V32.89a12.17,12.17,0,0,1,1.56-6.15,10.92,10.92,0,0,1,4.53-4.26,14.77,14.77,0,0,1,6.94-1.54,25.84,25.84,0,0,1,4,.27,18.36,18.36,0,0,1,3.35.88v6.26a16.32,16.32,0,0,0-6.56-1.2,8,8,0,0,0-4.61,1.14,3.41,3.41,0,0,0-1.65,2.93V32a9.38,9.38,0,0,1,2.7-1.09,12.89,12.89,0,0,1,3.09-.41c3.34,0,5.81.78,7.39,2.34s2.38,3.85,2.38,6.88a9.22,9.22,0,0,1-2.79,7.07q-2.77,2.61-8.7,2.61Q27.13,49.39,27.13,38.21ZM42,42.75A3.47,3.47,0,0,0,43,40a3.8,3.8,0,0,0-1-2.83,4.48,4.48,0,0,0-3.2-.94,8.11,8.11,0,0,0-4.2,1.28v2a4.22,4.22,0,0,0,1,3.15,4.27,4.27,0,0,0,3.09,1A4.67,4.67,0,0,0,42,42.75Z"/></g></g></svg>