<svg xmlns="http://www.w3.org/2000/svg" viewBox="0 0 77.37 77.37"><defs><style>.cls-1{fill:#111827;}.cls-2{fill:#fff;}</style></defs><g id="Layer_2" data-name="Layer 2"><g id="Layer_1-2" data-name="Layer 1"><circle class="cls-1" cx="38.68" cy="38.68" r="38.67"/><path class="cls-2" d="M29.6,47.3A7.3,7.3,0,0,1,26.68,41a7.38,7.38,0,0,1,1-3.72,5.94,5.94,0,0,1,2.63-2.53,6.2,6.2,0,0,1-2.91-5.32,7.54,7.54,0,0,1,2.74-6.23q2.75-2.2,8.53-2.21Q50,20.94,50,29.38a6.83,6.83,0,0,1-.75,3.15A5.78,5.78,0,0,1,47,34.91a6.27,6.27,0,0,1,3.68,6,7.27,7.27,0,0,1-3,6.35q-3,2.1-9.09,2.1T29.6,47.3ZM42,42.91a2.4,2.4,0,0,0,1-2.13,2.47,2.47,0,0,0-.68-1.88,4.86,4.86,0,0,0-2.27-1l-2.92-.6a4.37,4.37,0,0,0-2.1,1.1,2.89,2.89,0,0,0-.73,2.12,2.67,2.67,0,0,0,1,2.33,5.69,5.69,0,0,0,3.28.75A6.1,6.1,0,0,0,42,42.91Zm-.23-11.38a2.93,2.93,0,0,0,.6-2q0-2.78-3.69-2.78a4.55,4.55,0,0,0-2.74.68,2.48,2.48,0,0,0-.9,2.1,2.52,2.52,0,0,0,2.31,2.66l2.4.47A4.57,4.57,0,0,0,41.73,31.53Z"/></g></g></svg>