<svg xmlns="http://www.w3.org/2000/svg" viewBox="0 0 77.36 77.36"><defs><style>.cls-1{fill:#111827;}.cls-2{fill:#fff;}</style></defs><g id="Layer_2" data-name="Layer 2"><g id="Layer_1-2" data-name="Layer 1"><circle class="cls-1" cx="38.68" cy="38.68" r="38.67"/><path class="cls-2" d="M33.13,49.16a15.47,15.47,0,0,1-3.26-.84V42.07a13.29,13.29,0,0,0,3,.9,22.32,22.32,0,0,0,3.54.25,7.9,7.9,0,0,0,4.65-1.15,3.5,3.5,0,0,0,1.61-2.92v-.81A9.67,9.67,0,0,1,40,39.45a12,12,0,0,1-3.09.43c-3.34,0-5.81-.78-7.39-2.34s-2.38-3.85-2.38-6.88a9.26,9.26,0,0,1,2.79-7.11q2.77-2.61,8.7-2.61t8.78,2.78q2.84,2.79,2.83,8.4v5.32a12.12,12.12,0,0,1-1.56,6.17,11,11,0,0,1-4.52,4.24,14.84,14.84,0,0,1-6.95,1.54A29.36,29.36,0,0,1,33.13,49.16Zm9.56-16.35v-2a4.4,4.4,0,0,0-1-3.2,4.3,4.3,0,0,0-3.15-1,4.56,4.56,0,0,0-3.13,1,3.54,3.54,0,0,0-1.07,2.77,3.81,3.81,0,0,0,.94,2.82,4.38,4.38,0,0,0,3.17,1A8.4,8.4,0,0,0,42.69,32.81Z"/></g></g></svg>