<svg xmlns="http://www.w3.org/2000/svg" viewBox="0 0 504.49 504.49"><defs><style>.cls-1{fill:#01213d;}.cls-2{fill:#111827;}</style></defs><g id="Layer_2" data-name="Layer 2"><g id="Layer_1-2" data-name="Layer 1"><path class="cls-1" d="M467.47,380H37a3.5,3.5,0,0,1-3-5.25L249.21,2a3.51,3.51,0,0,1,6.07,0L470.5,374.75a3.5,3.5,0,0,1-3,5.25ZM43.08,373H461.41L252.24,10.73Z"/><path class="cls-1" d="M337.24,489.28a3.5,3.5,0,0,1-3.44-4.11l55-311.75L252.25,123.73,115.72,173.42l55,311.75a3.5,3.5,0,0,1-6.48,2.36L4.47,210.84a3.5,3.5,0,0,1,1.83-5l101.51-36.94L89.05,62.48a3.51,3.51,0,0,1,4.65-3.9l158.54,57.71L410.79,58.58a3.51,3.51,0,0,1,4.65,3.9L396.68,168.86,498.19,205.8a3.5,3.5,0,0,1,1.83,5L340.27,487.53A3.5,3.5,0,0,1,337.24,489.28Zm58.21-313.42-51.31,291L491.87,211ZM12.62,211,160.35,466.84,109,175.86ZM97,67.23l17.49,99.19L242,120ZM262.48,120,390,166.42l17.49-99.19Z"/><path class="cls-2" d="M252.25,504.49A252.25,252.25,0,0,1,73.88,73.88,252.25,252.25,0,0,1,430.61,430.61,250.6,250.6,0,0,1,252.25,504.49Zm0-489.49C121.43,15,15,121.43,15,252.24S121.43,489.49,252.25,489.49,489.49,383.06,489.49,252.24,383.06,15,252.24,15Z"/></g></g></svg>